<svg xmlns="http://www.w3.org/2000/svg" width="1180" height="560" viewBox="0 0 1180 560" role="img" aria-labelledby="title desc">
  <title id="title">UDP TFTP File Transfer Architecture</title>
  <desc id="desc">Architecture diagram showing client and server processes exchanging TFTP messages over UDP while sharing TftpCommon.cpp transfer logic and protocol constants.</desc>

  <defs>
    <marker id="arrow-orange" viewBox="0 0 10 10" refX="9" refY="5" markerWidth="8" markerHeight="8" orient="auto-start-reverse">
      <path d="M 0 0 L 10 5 L 0 10 z" fill="#c55a11"/>
    </marker>
    <marker id="arrow-blue" viewBox="0 0 10 10" refX="9" refY="5" markerWidth="8" markerHeight="8" orient="auto-start-reverse">
      <path d="M 0 0 L 10 5 L 0 10 z" fill="#4f81bd"/>
    </marker>
    <marker id="arrow-gray" viewBox="0 0 10 10" refX="9" refY="5" markerWidth="7" markerHeight="7" orient="auto-start-reverse">
      <path d="M 0 0 L 10 5 L 0 10 z" fill="#7f8c8d"/>
    </marker>
    <style>
      .panel { fill: #f4f6f8; stroke: #8a8f98; stroke-width: 1.5; }
      .panel-title { font: 700 14px Arial, sans-serif; fill: #2f3640; }
      .node-title { font: 700 14px Arial, sans-serif; fill: #1f2d1f; }
      .node-text { font: 12px Arial, sans-serif; fill: #263238; }
      .small-text { font: 11px Arial, sans-serif; fill: #263238; }
      .edge-label { font: 12px Arial, sans-serif; fill: #2f3640; }
      .storage { fill: #dae8fc; stroke: #3b6ea8; stroke-width: 2; }
      .process { fill: #d5e8d4; stroke: #4f8a45; stroke-width: 2; }
      .shared { fill: #f8cecc; stroke: #b85450; stroke-width: 2; }
      .config { fill: #fff2cc; stroke: #b8860b; stroke-width: 2; }
      .udp { stroke: #c55a11; stroke-width: 4; marker-end: url(#arrow-orange); }
      .dependency { fill: none; stroke: #4f81bd; stroke-width: 3; stroke-dasharray: 7 5; marker-end: url(#arrow-blue); }
      .include { fill: none; stroke: #6c8ebf; stroke-width: 2.5; stroke-dasharray: 6 4; marker-end: url(#arrow-blue); }
      .fileio { stroke: #7f8c8d; stroke-width: 2; marker-end: url(#arrow-gray); marker-start: url(#arrow-gray); }
    </style>
  </defs>

  <rect x="30" y="45" width="430" height="150" rx="2" class="panel"/>
  <text x="245" y="68" text-anchor="middle" class="panel-title">Client side</text>

  <rect x="720" y="45" width="430" height="150" rx="2" class="panel"/>
  <text x="935" y="68" text-anchor="middle" class="panel-title">Server side</text>

  <rect x="300" y="290" width="580" height="205" rx="2" class="panel"/>
  <text x="590" y="315" text-anchor="middle" class="panel-title">Shared transfer logic</text>

  <ellipse cx="130" cy="92" rx="75" ry="20" class="storage"/>
  <path d="M55 92 L55 145 C55 172 205 172 205 145 L205 92" class="storage"/>
  <path d="M55 92 C55 119 205 119 205 92" fill="none" stroke="#3b6ea8" stroke-width="2"/>
  <text x="130" y="123" text-anchor="middle" class="node-text">client-files/</text>
  <text x="130" y="141" text-anchor="middle" class="small-text">local upload/download</text>
  <text x="130" y="158" text-anchor="middle" class="small-text">folder</text>

  <rect x="275" y="82" width="145" height="78" class="process"/>
  <text x="347.5" y="105" text-anchor="middle" class="node-title">tftp-client</text>
  <text x="347.5" y="126" text-anchor="middle" class="node-text">builds RRQ/WRQ packets</text>
  <text x="347.5" y="144" text-anchor="middle" class="node-text">reads/writes local files</text>

  <rect x="760" y="82" width="145" height="78" class="process"/>
  <text x="832.5" y="105" text-anchor="middle" class="node-title">tftp-server</text>
  <text x="832.5" y="126" text-anchor="middle" class="node-text">validates requests</text>
  <text x="832.5" y="144" text-anchor="middle" class="node-text">serves or stores files</text>

  <ellipse cx="1035" cy="92" rx="58" ry="17" class="storage"/>
  <path d="M977 92 L977 145 C977 166 1093 166 1093 145 L1093 92" class="storage"/>
  <path d="M977 92 C977 113 1093 113 1093 92" fill="none" stroke="#3b6ea8" stroke-width="2"/>
  <text x="1035" y="123" text-anchor="middle" class="node-text">server-files/</text>
  <text x="1035" y="141" text-anchor="middle" class="small-text">server file root</text>

  <rect x="355" y="355" width="145" height="78" class="shared"/>
  <text x="427.5" y="378" text-anchor="middle" class="node-title">TftpCommon.cpp</text>
  <text x="427.5" y="399" text-anchor="middle" class="node-text">packet construction</text>
  <text x="427.5" y="417" text-anchor="middle" class="node-text">ACK/DATA loop</text>
  <text x="427.5" y="435" text-anchor="middle" class="node-text">timeout + retry handling</text>

  <rect x="610" y="337" width="185" height="58" class="config"/>
  <text x="702.5" y="358" text-anchor="middle" class="node-title">TftpOpcode.h</text>
  <text x="702.5" y="379" text-anchor="middle" class="node-text">RRQ WRQ DATA ACK ERROR</text>

  <rect x="610" y="421" width="185" height="58" class="config"/>
  <text x="702.5" y="442" text-anchor="middle" class="node-title">TftpConstant.h</text>
  <text x="702.5" y="463" text-anchor="middle" class="node-text">516-byte packets</text>
  <text x="702.5" y="478" text-anchor="middle" class="node-text">512-byte payloads</text>

  <line x1="205" y1="122" x2="275" y2="122" class="fileio"/>
  <text x="240" y="114" text-anchor="middle" class="edge-label">file I/O</text>

  <line x1="905" y1="122" x2="977" y2="122" class="fileio"/>
  <text x="941" y="114" text-anchor="middle" class="edge-label">file I/O</text>

  <line x1="420" y1="122" x2="760" y2="122" class="udp"/>
  <rect x="495" y="92" width="190" height="58" fill="#ffffff" stroke="#d0d7de"/>
  <text x="590" y="109" text-anchor="middle" class="edge-label">TFTP messages over UDP</text>
  <text x="590" y="128" text-anchor="middle" class="edge-label">RRQ / WRQ / DATA / ACK /</text>
  <text x="590" y="147" text-anchor="middle" class="edge-label">ERROR</text>

  <path d="M347.5 160 C347.5 235 395 260 427.5 355" class="dependency"/>
  <text x="330" y="255" text-anchor="middle" class="edge-label">&lt;&lt;uses&gt;&gt;</text>

  <path d="M832.5 160 C832.5 235 500 260 462 355" class="dependency"/>
  <text x="705" y="255" text-anchor="middle" class="edge-label">&lt;&lt;uses&gt;&gt;</text>

  <path d="M500 378 C545 365 565 365 610 366" class="include"/>
  <text x="555" y="354" text-anchor="middle" class="edge-label">&lt;&lt;includes&gt;&gt;</text>
  <text x="555" y="371" text-anchor="middle" class="small-text">opcode definitions</text>

  <path d="M500 418 C545 445 565 450 610 450" class="include"/>
  <text x="555" y="432" text-anchor="middle" class="edge-label">&lt;&lt;includes&gt;&gt;</text>
  <text x="555" y="449" text-anchor="middle" class="small-text">packet constants</text>
</svg>
